<svg width="512" height="512" viewBox="0 0 512 512" fill="none" xmlns="http://www.w3.org/2000/svg">
<path d="M251.346 449.356C247.2 449.356 243.838 445.995 243.838 441.848V372.25C243.838 368.103 247.199 364.742 251.346 364.742C255.493 364.742 258.854 368.103 258.854 372.25V441.848C258.854 445.995 255.492 449.356 251.346 449.356Z" fill="#0A5B36"/>
<path d="M329.118 452.264C324.971 452.264 321.61 448.903 321.61 444.756V336.06C321.61 331.913 324.971 328.552 329.118 328.552C333.265 328.552 336.626 331.913 336.626 336.06V444.755C336.625 448.903 333.264 452.264 329.118 452.264Z" fill="#0A5B36"/>
<path d="M246.069 384.263C283.192 384.263 313.287 354.168 313.287 317.045C313.287 279.922 283.192 249.827 246.069 249.827C208.946 249.827 178.851 279.922 178.851 317.045C178.851 354.168 208.946 384.263 246.069 384.263Z" fill="#0F7A4F"/>
<path d="M313.288 317.048C313.288 354.167 283.189 384.266 246.07 384.266C230.231 384.266 215.671 378.786 204.181 369.616C210.211 371.396 216.591 372.346 223.2 372.346C260.319 372.346 290.408 342.247 290.408 305.128C290.408 283.848 280.518 264.869 265.089 252.56C292.949 260.76 313.288 286.529 313.288 317.048Z" fill="#0C6842"/>
<path d="M349.753 223.669C386.876 223.669 416.971 193.574 416.971 156.451C416.971 119.328 386.876 89.233 349.753 89.233C312.63 89.233 282.535 119.328 282.535 156.451C282.535 193.574 312.63 223.669 349.753 223.669Z" fill="#158F5E"/>
<path d="M416.975 156.453C416.975 193.572 386.876 223.671 349.757 223.671C344.387 223.671 339.167 223.041 334.168 221.851C363.767 214.811 385.786 188.202 385.786 156.453C385.786 124.694 363.767 98.085 334.168 91.055C339.168 89.865 344.388 89.235 349.757 89.235C386.876 89.235 416.975 119.324 416.975 156.453Z" fill="#0F7A4F"/>
<path d="M437.805 315.224C474.928 315.224 505.023 285.129 505.023 248.006C505.023 210.883 474.928 180.788 437.805 180.788C400.682 180.788 370.587 210.883 370.587 248.006C370.587 285.129 400.682 315.224 437.805 315.224Z" fill="#158F5E"/>
<path d="M505.022 248.01C505.022 285.129 474.923 315.228 437.804 315.228C431.694 315.228 425.774 314.408 420.145 312.878C453.084 308.538 478.503 280.359 478.503 246.24C478.503 215.231 457.504 189.122 428.945 181.372C431.845 180.992 434.805 180.792 437.805 180.792C474.923 180.792 505.022 210.881 505.022 248.01Z" fill="#0F7A4F"/>
<path d="M360.518 449.356C356.371 449.356 353.01 445.995 353.01 441.848V341.599C353.01 337.452 356.371 334.091 360.518 334.091C364.665 334.091 368.026 337.452 368.026 341.599V441.848C368.026 445.995 364.665 449.356 360.518 449.356Z" fill="#0F7A4F"/>
<path d="M394.659 367.423C365.68 367.423 342.188 343.931 342.188 314.952V200.193C342.188 171.214 365.68 147.722 394.659 147.722C423.638 147.722 447.13 171.214 447.13 200.193V314.951C447.13 343.931 423.638 367.423 394.659 367.423Z" fill="#D2F0A2"/>
<path d="M447.134 200.191V314.947C447.134 343.926 423.635 367.425 394.656 367.425C390.206 367.425 385.886 366.875 381.766 365.825C404.515 360.085 421.355 339.476 421.355 314.947V200.191C421.355 185.701 415.485 172.582 405.985 163.092C399.405 156.512 391.086 151.672 381.766 149.322C385.886 148.272 390.206 147.722 394.656 147.722C409.146 147.722 422.265 153.592 431.765 163.092C441.264 172.582 447.134 185.702 447.134 200.191Z" fill="#BCEA73"/>
<path d="M416.595 290.18C413.662 287.249 408.909 287.249 405.977 290.18L402.167 293.99V277.589C402.167 277.588 402.167 277.586 402.167 277.584V248.233C402.167 244.086 398.806 240.725 394.659 240.725C390.512 240.725 387.151 244.086 387.151 248.233V259.46L379.58 251.888C376.648 248.956 371.894 248.955 368.963 251.887C366.03 254.819 366.03 259.573 368.962 262.504L387.152 280.695V312.11V312.12V437.777C387.152 441.924 390.513 445.285 394.66 445.285C398.807 445.285 402.168 441.924 402.168 437.777V315.226L416.596 300.798C419.526 297.866 419.526 293.113 416.595 290.18Z" fill="#A3E440"/>
<path d="M127.393 236.129C98.414 236.129 74.922 212.637 74.922 183.658V110.206C74.922 81.227 98.414 57.735 127.393 57.735C156.372 57.735 179.864 81.227 179.864 110.206V183.658C179.865 212.637 156.372 236.129 127.393 236.129Z" fill="#D2F0A2"/>
<path d="M179.863 110.204V183.662C179.863 212.641 156.374 236.131 127.395 236.131C122.435 236.131 117.625 235.441 113.075 234.151C135.094 227.921 151.224 207.682 151.224 183.663V110.205C151.224 95.715 145.354 82.596 135.855 73.106C129.615 66.856 121.805 62.186 113.076 59.717C117.626 58.427 122.436 57.737 127.396 57.737C141.886 57.737 155.005 63.607 164.495 73.106C173.993 82.595 179.863 95.715 179.863 110.204Z" fill="#BCEA73"/>
<path d="M149.329 158.886C146.397 155.955 141.643 155.955 138.712 158.886L134.901 162.697V146.295C134.901 146.294 134.901 146.292 134.901 146.29V116.94C134.901 112.793 131.54 109.432 127.393 109.432C123.246 109.432 119.885 112.793 119.885 116.94V128.167L112.313 120.594C109.381 117.663 104.627 117.663 101.696 120.594C98.764 123.527 98.764 128.28 101.696 131.212L119.886 149.402V180.82V180.825V444.756C119.886 448.903 123.247 452.264 127.394 452.264C131.541 452.264 134.902 448.903 134.902 444.756V183.933L149.33 169.505C152.261 166.572 152.261 161.819 149.329 158.886Z" fill="#A3E440"/>
<path d="M200.949 332.761C244.947 332.761 280.615 297.093 280.615 253.095C280.615 209.097 244.947 173.429 200.949 173.429C156.951 173.429 121.283 209.097 121.283 253.095C121.283 297.093 156.951 332.761 200.949 332.761Z" fill="#1CA56F"/>
<path d="M280.619 253.09C280.619 297.089 244.95 332.757 200.952 332.757C188.322 332.757 176.383 329.817 165.773 324.577C202.822 317.737 230.891 285.268 230.891 246.24C230.891 214.871 212.762 187.742 186.412 174.752C191.122 173.882 195.982 173.432 200.952 173.432C244.95 173.432 280.619 209.101 280.619 253.09Z" fill="#158F5E"/>
<path d="M224.279 216.655C221.347 213.724 216.593 213.723 213.662 216.656L208.457 221.86V213.193C208.457 209.046 205.096 205.685 200.949 205.685C196.802 205.685 193.441 209.046 193.441 213.193V292.651C193.441 296.798 196.802 300.159 200.949 300.159C205.096 300.159 208.457 296.798 208.457 292.651V243.094L224.279 227.271C227.211 224.34 227.211 219.588 224.279 216.655Z" fill="#0F7A4F"/>
<path d="M200.949 452.264C196.803 452.264 193.441 448.903 193.441 444.756V373.464C193.441 369.317 196.802 365.956 200.949 365.956C205.096 365.956 208.457 369.317 208.457 373.464V444.756C208.457 448.903 205.096 452.264 200.949 452.264Z" fill="#0F7A4F"/>
<path d="M349.753 270.126C349.753 362.453 326.065 360.806 296.844 360.806C267.623 360.806 243.935 362.453 243.935 270.126C243.935 177.799 273.792 73.632 296.844 73.632C319.896 73.632 349.753 177.799 349.753 270.126Z" fill="#A3E440"/>
<path d="M349.753 270.126C349.753 362.453 326.065 360.806 296.844 360.806C267.623 360.806 243.935 362.453 243.935 270.126C243.935 177.799 273.792 73.632 296.844 73.632C319.896 73.632 349.753 177.799 349.753 270.126Z" fill="#A3E440"/>
<path d="M349.748 270.124C349.748 362.456 326.066 360.805 296.844 360.805C292.085 360.805 287.463 360.851 283.07 360.518C305.605 358.843 322.2 347.386 322.2 270.124C322.2 195.533 302.704 113.225 283.07 84.347C287.738 77.477 292.417 73.635 296.844 73.635C319.895 73.636 349.748 177.804 349.748 270.124Z" fill="#99D53B"/>
<path d="M328.708 279.854C325.775 276.923 321.022 276.923 318.09 279.854L304.352 293.592V264.848C304.352 264.845 304.352 264.841 304.352 264.838V231.022C304.352 226.875 300.991 223.514 296.844 223.514C292.697 223.514 289.336 226.875 289.336 231.022V246.717L278.658 236.039C275.725 233.108 270.972 233.108 268.04 236.039C265.108 238.972 265.108 243.725 268.04 246.657L289.336 267.953V311.713V311.723V441.848C289.336 445.995 292.697 449.356 296.844 449.356C300.991 449.356 304.352 445.995 304.352 441.848V314.828L328.708 290.472C331.64 287.54 331.64 282.787 328.708 279.854Z" fill="#88BA31"/>
<path d="M8.038 337.498C8.038 408.612 40.092 407.343 79.632 407.343C119.172 407.343 151.226 408.612 151.226 337.498C151.226 266.384 110.825 186.152 79.632 186.152C48.439 186.152 8.038 266.384 8.038 337.498Z" fill="#A3E440"/>
<path d="M8.038 337.498C8.038 408.612 40.092 407.343 79.632 407.343C119.172 407.343 151.226 408.612 151.226 337.498C151.226 266.384 110.825 186.152 79.632 186.152C48.439 186.152 8.038 266.384 8.038 337.498Z" fill="#99D53B"/>
<path d="M151.223 337.497C151.223 408.615 119.174 407.345 79.635 407.345C74.495 407.345 69.495 407.365 64.666 407.245C97.015 406.455 121.284 399.375 121.284 337.497C121.284 277.399 92.435 210.791 64.666 191.602C69.756 188.072 74.806 186.152 79.635 186.152C110.825 186.152 151.223 266.38 151.223 337.497Z" fill="#8DC637"/>
<path d="M219.496 340.171C219.496 392.725 195.808 391.787 166.587 391.787C137.366 391.787 113.678 392.725 113.678 340.171C113.678 287.617 143.535 228.325 166.587 228.325C189.639 228.325 219.496 287.617 219.496 340.171Z" fill="#A3E440"/>
<path d="M219.496 340.171C219.496 392.725 195.808 391.787 166.587 391.787C137.366 391.787 113.678 392.725 113.678 340.171C113.678 287.617 143.535 228.325 166.587 228.325C189.639 228.325 219.496 287.617 219.496 340.171Z" fill="#A3E440"/>
<path d="M219.491 340.167C219.491 392.725 195.812 391.785 166.583 391.785C161.133 391.785 155.883 391.815 150.934 391.525C172.513 390.275 188.193 382.925 188.193 340.167C188.193 299.058 169.924 253.83 150.934 236.07C156.214 231.13 161.564 228.32 166.583 228.32C189.642 228.321 219.491 287.619 219.491 340.167Z" fill="#99D53B"/>
<path d="M198.451 326.323C195.52 323.392 190.766 323.392 187.834 326.323L174.095 340.062V303.306C174.095 299.159 170.734 295.798 166.587 295.798C162.44 295.798 159.079 299.159 159.079 303.306V358.185V358.19V441.849C159.079 445.996 162.44 449.357 166.587 449.357C170.734 449.357 174.095 445.996 174.095 441.849V361.297L198.451 336.941C201.383 334.009 201.383 329.256 198.451 326.323Z" fill="#88BA31"/>
<path d="M501.49 365.772C501.49 403.648 484.418 402.973 463.358 402.973C442.298 402.973 425.226 403.649 425.226 365.772C425.226 327.895 446.744 285.163 463.358 285.163C479.972 285.163 501.49 327.896 501.49 365.772Z" fill="#A3E440"/>
<path d="M501.49 365.772C501.49 403.648 484.418 402.973 463.358 402.973C442.298 402.973 425.226 403.649 425.226 365.772C425.226 327.895 446.744 285.163 463.358 285.163C479.972 285.163 501.49 327.896 501.49 365.772Z" fill="#A3E440"/>
<path d="M501.492 365.776C501.492 403.645 484.413 402.975 463.353 402.975C458.873 402.975 454.573 403.005 450.583 402.685C465.363 401.515 475.932 395.585 475.932 365.776C475.932 337.227 463.712 305.928 450.583 292.228C454.863 287.748 459.253 285.158 463.353 285.158C479.973 285.159 501.492 327.897 501.492 365.776Z" fill="#99D53B"/>
<path d="M483.198 358.915C480.267 355.984 475.513 355.983 472.581 358.916L470.866 360.631V339.204C470.866 335.057 467.505 331.696 463.358 331.696C459.211 331.696 455.85 335.057 455.85 339.204V378.756V378.761V441.85C455.85 445.997 459.211 449.358 463.358 449.358C467.505 449.358 470.866 445.997 470.866 441.85V381.868L483.199 369.534C486.13 366.601 486.13 361.847 483.198 358.915Z" fill="#88BA31"/>
<path d="M98.668 309.904C101.6 306.971 101.6 302.218 98.668 299.286C95.736 296.355 90.982 296.355 88.051 299.286L87.14 300.197V279.529C87.14 275.382 83.779 272.021 79.632 272.021C75.485 272.021 72.124 275.382 72.124 279.529V343.752L62.671 334.299C59.739 331.368 54.985 331.368 52.054 334.299C49.122 337.232 49.122 341.985 52.054 344.917L72.125 364.987V441.849C72.125 445.996 75.486 449.357 79.633 449.357C83.78 449.357 87.141 445.996 87.141 441.849V361.879C87.141 361.878 87.141 361.876 87.141 361.874V321.432L98.668 309.904Z" fill="#88BA31"/>
<path d="M504.492 454.266H7.508C3.362 454.266 0 450.905 0 446.758C0 442.611 3.361 439.25 7.508 439.25H504.492C508.639 439.25 512 442.611 512 446.758C512 450.905 508.639 454.266 504.492 454.266Z" fill="#0A5B36"/>
</svg>
