<svg width="512" height="512" viewBox="0 0 512 512" fill="none" xmlns="http://www.w3.org/2000/svg">
<path d="M373.667 215.56H373.834C388.206 215.56 399.852 203.905 399.852 189.542C399.852 175.17 388.206 163.514 373.834 163.514C373.647 163.514 373.46 163.514 373.273 163.524H135.025C134.838 163.514 134.651 163.514 134.464 163.514C120.092 163.514 108.446 175.169 108.446 189.542C108.446 203.905 120.092 215.56 134.464 215.56H134.631" fill="#583F28"/>
<path d="M367.682 95.572C291.993 88.234 216.305 88.234 140.616 95.572C134.743 142.632 133.013 189.693 135.426 236.753C137.183 271.011 164.596 298.278 198.86 299.896C235.719 301.636 272.578 301.636 309.437 299.896C343.701 298.278 371.114 271.011 372.871 236.753C375.286 189.692 373.556 142.632 367.682 95.572V95.572Z" fill="#583F28"/>
<path d="M140.621 95.564C178.459 91.894 216.308 90.065 254.157 90.065C234.995 90.065 215.834 91.917 196.672 95.62C193.691 143.134 192.822 190.649 194.041 238.152C194.843 269.418 206.27 294.914 221.265 300.729C213.801 300.526 206.326 300.243 198.863 299.893C164.605 298.278 137.189 271.009 135.428 236.751C133.022 189.69 134.749 142.627 140.621 95.564V95.564Z" fill="#583F28"/>
<path d="M317.191 134.706C273.687 151.512 211.89 144.101 180.746 112.958C180.746 112.958 173.35 163.524 135.034 163.524L118.325 169.143C73.699 -6.028 168.884 40.777 168.884 40.777C177.87 23.362 190.96 16.152 204.636 14.413C205.84 14.264 207.044 14.153 208.256 14.079C208.353 14.079 208.449 14.072 208.546 14.064C218.179 13.551 227.931 15.506 236.598 18.293C239.616 19.267 242.507 20.337 245.213 21.445C256.102 25.897 264.033 30.9 265.698 31.97C265.914 32.119 266.025 32.193 266.025 32.193C275.82 19.229 285.163 7.5 295.435 7.5C299.649 7.5 302.563 9.113 304.518 11.692C311.929 21.407 305.841 44.768 305.35 46.604L305.328 46.686C305.335 46.671 305.343 46.641 305.358 46.604L305.41 46.47C306.726 43.155 321.443 7.5 347.837 7.5C349.502 7.5 350.996 7.656 352.326 7.953C372.001 12.301 356.6 46.715 354.905 50.357L354.86 50.461C354.815 50.55 354.786 50.617 354.771 50.647C355.611 49.577 388.561 7.745 403.203 26.936C403.21 26.951 403.21 26.951 403.218 26.958C417.988 46.426 360.673 117.907 317.191 134.706Z" fill="#312F26"/>
<path d="M403.204 26.937H403.197C395.794 19.541 370.151 54.453 354.75 50.67L354.862 50.462C354.817 50.551 354.788 50.618 354.773 50.648C355.611 49.577 388.561 7.74499 403.204 26.937V26.937Z" fill="#312F26"/>
<path d="M352.326 7.95299C341.204 5.42699 330.895 26.596 325.071 41.624C322.254 48.891 313.529 51.808 306.905 47.701L305.314 46.715L305.329 46.685L305.351 46.603H305.358L305.41 46.469C306.726 43.154 321.443 7.49899 347.837 7.49899C349.501 7.49999 350.995 7.65599 352.326 7.95299V7.95299Z" fill="#312F26"/>
<path d="M204.633 14.413C172.806 20.025 160.779 92.993 180.744 112.957C180.744 112.957 173.348 163.523 135.032 163.523L118.323 169.142C73.696 -6.028 168.881 40.777 168.881 40.777C177.868 23.362 190.957 16.152 204.633 14.413V14.413Z" fill="#312F26"/>
<path d="M304.518 11.692C293.332 0.506001 285.876 57.872 260.694 67.059C235.512 76.246 233.155 64.502 233.155 64.502V64.495C245.553 59.909 256.018 45.415 266.016 32.184C266.023 32.191 266.023 32.191 266.023 32.191C266.328 31.782 266.632 31.381 266.937 30.979C267.316 30.466 267.71 29.953 268.097 29.448C277.15 17.624 285.891 7.5 295.435 7.5C299.649 7.5 302.563 9.113 304.518 11.692V11.692Z" fill="#312F26"/>
<path d="M208.565 14.071C208.461 14.071 208.357 14.071 208.253 14.079C208.35 14.079 208.446 14.071 208.543 14.064L208.565 14.071Z" fill="#312F26"/>
<path d="M444.37 280.45V449.49C444.37 460.31 436.82 469.67 426.25 471.96L276.1 504.5H256.72V288.42H276.1L416.51 257.99C430.83 254.88 444.37 265.8 444.37 280.45V280.45Z" fill="#DA4A54"/>
<path d="M256.72 288.42V504.5H235.9L85.75 471.96C75.18 469.67 67.63 460.31 67.63 449.49V280.45C67.63 265.8 81.17 254.88 95.49 257.99L235.9 288.42H256.72Z" fill="#C32430"/>
<path d="M235.902 504.5V288.419H276.098V504.5" fill="#DD636E"/>
<path d="M63.504 362.126H55.64C44.028 362.126 34.614 352.712 34.614 341.1V322.226C34.614 310.614 44.028 301.2 55.64 301.2H63.504C75.116 301.2 84.53 310.614 84.53 322.226V341.1C84.53 352.713 75.117 362.126 63.504 362.126V362.126Z" fill="#583F28"/>
<path d="M67.545 361.73C66.245 362 64.885 362.13 63.505 362.13H55.635C44.025 362.13 34.615 352.71 34.615 341.1V322.23C34.615 310.61 44.025 301.2 55.635 301.2H63.505C64.885 301.2 66.245 301.33 67.545 301.6C57.875 303.48 50.575 312 50.575 322.23V341.1C50.575 351.33 57.875 359.85 67.545 361.73Z" fill="#583F28"/>
<path d="M456.359 362.126H448.495C436.883 362.126 427.469 352.712 427.469 341.1V322.226C427.469 310.614 436.883 301.2 448.495 301.2H456.359C467.971 301.2 477.385 310.614 477.385 322.226V341.1C477.385 352.713 467.972 362.126 456.359 362.126Z" fill="#583F28"/>
<path d="M460.4 361.73C459.1 362 457.74 362.13 456.36 362.13H448.49C436.88 362.13 427.47 352.71 427.47 341.1V322.23C427.47 310.61 436.88 301.2 448.49 301.2H456.36C457.74 301.2 459.1 301.33 460.4 301.6C450.73 303.48 443.43 312 443.43 322.23V341.1C443.43 351.33 450.73 359.85 460.4 361.73Z" fill="#583F28"/>
<path d="M285.269 242.415C287.045 238.673 285.452 234.2 281.709 232.424C277.966 230.648 273.494 232.242 271.718 235.984C268.514 242.734 261.618 247.096 254.149 247.096C246.68 247.096 239.784 242.734 236.581 235.984C234.805 232.242 230.332 230.648 226.59 232.424C222.848 234.2 221.254 238.673 223.029 242.415C228.703 254.371 240.918 262.096 254.149 262.096C267.38 262.096 279.595 254.37 285.269 242.415V242.415Z" fill="black"/>
<path d="M198.749 211.528C204.732 211.528 209.582 204.309 209.582 195.403C209.582 186.497 204.732 179.278 198.749 179.278C192.766 179.278 187.916 186.497 187.916 195.403C187.916 204.309 192.766 211.528 198.749 211.528Z" fill="black"/>
<path d="M309.55 211.528C315.533 211.528 320.383 204.309 320.383 195.403C320.383 186.497 315.533 179.278 309.55 179.278C303.567 179.278 298.717 186.497 298.717 195.403C298.717 204.309 303.567 211.528 309.55 211.528Z" fill="black"/>
<path d="M417.18 318.491C416.303 314.443 412.313 311.873 408.262 312.75L325.212 330.75C321.164 331.627 318.594 335.62 319.471 339.668C320.232 343.181 323.34 345.581 326.793 345.581C327.319 345.581 327.854 345.525 328.389 345.409L411.439 327.409C415.487 326.532 418.057 322.54 417.18 318.491Z" fill="black"/>
<path d="M408.261 340.62L325.211 358.62C321.163 359.497 318.593 363.49 319.47 367.538C320.231 371.051 323.339 373.451 326.792 373.451C327.318 373.451 327.853 373.395 328.388 373.279L411.438 355.279C415.486 354.402 418.056 350.409 417.179 346.361C416.303 342.313 412.313 339.744 408.261 340.62Z" fill="black"/>
<path d="M456.359 293.701H451.87V280.45C451.87 271.186 447.731 262.537 440.515 256.72C433.301 250.904 423.973 248.695 414.922 250.661L375.828 259.133C378.432 252.105 379.979 244.686 380.37 237.134C380.623 232.192 380.82 227.241 380.982 222.286C396.04 219.001 407.353 205.572 407.353 189.543C407.353 173.327 395.784 159.766 380.469 156.677C379.565 137.889 378.008 119.121 375.81 100.456C393.359 81.731 407.154 60.872 411.485 45.533C414.233 35.801 413.451 28.014 409.16 22.39C405.2 17.2 399.802 14.44 393.548 14.409C386.388 14.383 378.565 17.817 369.654 24.9C369.991 18.473 368.864 13.166 366.273 9.045C363.68 4.918 358.375 0 347.831 0C333.809 0 322.792 7.87 314.743 16.963C313.956 13.335 312.617 9.949 310.496 7.161C306.934 2.477 301.724 0 295.43 0C283.275 0 273.687 10.081 264.146 22.303C260.148 20.048 254.604 17.183 248.04 14.494C245.063 13.281 241.995 12.159 238.891 11.148C227.87 7.614 217.529 6.074 208.155 6.57C208.088 6.573 207.995 6.58 207.908 6.588C207.883 6.589 207.858 6.59 207.832 6.592C206.446 6.671 205.098 6.794 203.694 6.97C187.534 9.025 174.773 17.213 165.675 31.34C149.4 25.639 123.138 23.585 108.827 46.782C106.652 50.307 107.746 54.928 111.272 57.103C112.5 57.86 113.859 58.221 115.203 58.221C117.719 58.221 120.176 56.956 121.593 54.658C134.969 32.977 164.343 46.915 165.57 47.51C169.237 49.314 173.672 47.851 175.545 44.22C182.439 30.862 192.266 23.544 205.57 21.852C206.593 21.724 207.587 21.633 208.606 21.573C208.761 21.567 208.92 21.556 209.081 21.543C216.598 21.164 225.084 22.474 234.278 25.422C237.009 26.311 239.735 27.308 242.367 28.381C247.303 30.403 251.624 32.558 254.964 34.37C247.095 44.664 238.984 54.357 230.544 57.474C226.658 58.909 224.671 63.222 226.106 67.108C227.542 70.994 231.855 72.98 235.74 71.546C249.593 66.43 260.227 52.327 270.512 38.689C278.885 27.584 288.375 15 295.43 15C297.442 15 298.097 15.639 298.554 16.238C302.249 21.088 300.46 36.098 298.09 44.708C297.018 48.572 299.175 52.595 302.986 53.841C306.799 55.089 310.914 53.116 312.332 49.366C312.462 49.022 325.941 15 347.831 15C352.298 15 353.258 16.524 353.573 17.024C357.05 22.543 352.297 38.425 347.993 47.416C346.331 50.87 347.542 55.021 350.8 57.041C354.057 59.061 358.315 58.299 360.669 55.275C360.722 55.207 366.01 48.444 373.158 41.72C384.95 30.625 391.256 29.408 393.445 29.408H393.474C394.784 29.415 395.925 29.771 397.234 31.487C398.436 33.063 398.367 36.789 397.049 41.456C389.687 67.53 347.516 114.944 314.477 127.709C271.372 144.364 213.758 135.365 186.044 107.651C184.038 105.645 181.073 104.943 178.381 105.835C175.689 106.728 173.73 109.062 173.32 111.869C173.303 111.983 171.587 123.376 165.612 134.752C158.2 148.867 147.908 156.024 135.023 156.024C135.013 156.024 135.004 156.025 134.995 156.025C134.817 156.021 134.64 156.014 134.462 156.014C130.552 156.014 126.799 156.694 123.306 157.931C115.609 125.401 112.615 99.113 114.435 79.731C114.822 75.607 111.793 71.95 107.669 71.563C103.546 71.177 99.888 74.205 99.501 78.329C97.43 100.389 100.968 130.107 109.988 166.669C104.384 172.664 100.944 180.707 100.944 189.543C100.944 205.575 112.261 219.007 127.324 222.288C127.487 227.248 127.684 232.2 127.938 237.132C128.306 244.364 129.74 251.489 132.151 258.262L97.08 250.661C88.028 248.695 78.698 250.903 71.482 256.72C64.266 262.537 60.128 271.186 60.128 280.45V293.701H55.639C39.91 293.701 27.113 306.498 27.113 322.227V341.1C27.113 356.829 39.91 369.626 55.639 369.626H60.128V449.49C60.128 463.74 70.235 476.273 84.16 479.29L234.31 511.83C234.319 511.832 234.328 511.832 234.336 511.834C234.543 511.878 234.755 511.91 234.968 511.936C235.016 511.942 235.063 511.953 235.111 511.958C235.359 511.984 235.611 511.997 235.866 511.998C235.877 511.998 235.888 512 235.899 512H276.099C276.11 512 276.121 511.998 276.132 511.998C276.387 511.997 276.639 511.984 276.887 511.958C276.935 511.953 276.982 511.942 277.03 511.936C277.243 511.91 277.454 511.878 277.662 511.834C277.671 511.832 277.68 511.832 277.688 511.83L427.837 479.29C441.762 476.273 451.869 463.74 451.869 449.49V439.262C451.869 435.12 448.511 431.762 444.369 431.762C440.227 431.762 436.869 435.12 436.869 439.262V449.49C436.869 456.73 431.735 463.097 424.661 464.63L283.598 495.201V294.469L418.102 265.319C422.698 264.321 427.436 265.443 431.102 268.398C434.768 271.353 436.871 275.746 436.871 280.45V296.187C426.922 300.647 419.971 310.637 419.971 322.226V341.1C419.971 352.69 426.922 362.68 436.871 367.139V409.262C436.871 413.404 440.229 416.762 444.371 416.762C448.513 416.762 451.871 413.404 451.871 409.262V369.626H456.36C472.089 369.626 484.886 356.829 484.886 341.1V322.226C484.885 306.497 472.088 293.701 456.359 293.701V293.701ZM392.353 189.542C392.353 197.08 387.819 203.569 381.341 206.456C381.488 195.148 381.399 183.821 381.073 172.491C387.696 175.316 392.353 181.894 392.353 189.542V189.542ZM115.946 189.542C115.946 181.902 120.594 175.329 127.208 172.499C126.885 183.802 126.81 195.143 126.96 206.456C120.48 203.57 115.946 197.081 115.946 189.542ZM142.92 236.363C141.795 214.573 141.589 192.445 142.285 170.481C157.61 168.157 170.17 158.338 178.894 141.726C181.686 136.41 183.698 131.113 185.118 126.596C200.4 137.987 220.571 145.898 243.235 149.232C269.929 153.159 297.15 150.485 319.884 141.702C333.812 136.321 348.6 126.095 362.197 113.827C366.39 154.565 367.47 195.713 365.39 236.363C364.901 245.811 362.151 254.998 357.419 263.123L275.296 280.921H236.703L150.357 262.208C145.948 254.32 143.383 245.452 142.92 236.363V236.363ZM243.402 295.92H268.598V497H243.402V295.92ZM42.115 341.1V322.226C42.115 314.768 48.183 308.7 55.641 308.7H63.505C70.963 308.7 77.031 314.768 77.031 322.226V341.1C77.031 348.558 70.963 354.626 63.505 354.626H55.641C48.183 354.626 42.115 348.559 42.115 341.1ZM75.13 449.49V367.14C85.079 362.68 92.03 352.69 92.03 341.101V322.227C92.03 310.637 85.079 300.647 75.13 296.188V280.45C75.13 275.746 77.233 271.353 80.899 268.398C84.565 265.443 89.303 264.321 93.902 265.32L228.402 294.469V495.201L87.338 464.63C80.264 463.097 75.13 456.73 75.13 449.49V449.49ZM469.885 341.1C469.885 348.558 463.817 354.626 456.359 354.626H448.495C441.037 354.626 434.969 348.558 434.969 341.1V322.226C434.969 314.768 441.037 308.7 448.495 308.7H456.359C463.817 308.7 469.885 314.768 469.885 322.226V341.1Z" fill="black"/>
</svg>
