<svg width="188" height="75" viewBox="0 0 188 75" fill="none" xmlns="http://www.w3.org/2000/svg">
<path d="M44.8445 49.9694C57.1267 49.9694 67.0834 38.7833 67.0834 24.9847C67.0834 11.186 57.1267 0 44.8445 0C32.5622 0 22.6055 11.186 22.6055 24.9847C22.6055 38.7833 32.5622 49.9694 44.8445 49.9694Z" fill="#D5EFC8"/>
<path d="M44.825 50.8211C44.2001 50.8211 43.6934 50.2519 43.6934 49.5499V35.2806C43.6934 34.5785 44.2001 34.0093 44.825 34.0093C45.4499 34.0093 45.9565 34.5785 45.9565 35.2806V49.5499C45.9565 50.2519 45.4499 50.8211 44.825 50.8211Z" fill="#97DA7B"/>
<path d="M44.825 40.1837L40.327 36.4432C34.0281 31.2054 34.059 20.6064 40.3884 15.4153L44.2204 12.2723C44.5211 12.0257 44.9502 12.2005 45.0383 12.6069C45.4511 14.5127 45.3633 16.4992 44.8252 18.5585L46.9984 23.0705L44.825 40.1837Z" fill="#ADE194"/>
<path d="M50.9793 8.72022L48.4467 13.9365C48.2295 14.384 47.9624 14.7988 47.6521 15.1706L43.5857 20.0437C41.5487 22.4847 40.8416 25.9702 41.7361 29.1619L44.825 40.1838L51.8725 31.9958C57.3911 25.5842 57.8828 15.5932 53.0272 8.53733C52.4857 7.75033 51.4033 7.84695 50.9793 8.72022Z" fill="#80D261"/>
<path d="M32.1121 53.5422L42.302 47.2645C48.7536 43.29 56.7305 44.2856 62.2481 49.7543L66.4048 53.874V58.6155L35.6219 69.2903L32.1121 58.8501V53.5422Z" fill="#DC8758"/>
<path d="M74.6847 54.3137C73.9484 52.5238 72.1213 51.6559 70.4647 52.3102L47.5166 61.3769C47.5227 61.3701 47.5272 61.365 47.5332 61.3582C48.268 60.5345 48.7221 59.3937 48.7221 58.1343C48.7221 56.541 47.9949 55.1392 46.892 54.3239C46.2538 53.851 45.4873 53.5764 44.6651 53.5764H33.87H30.6971C29.3181 52.0271 27.4472 51.1559 25.4964 51.1559H6.71155V71.5047L14.3241 71.2877L14.9895 71.9318C17.0353 73.9116 19.647 74.9998 22.3476 74.9998H43.4536C45.258 74.9998 47.0368 74.5134 48.6391 73.5811L73.1609 59.314C74.3256 58.636 75 57.3021 75 55.9155C75 55.3782 74.8989 54.8324 74.6847 54.3137Z" fill="#FFCEBF"/>
<path d="M32.9801 62.659H44.6499C46.8909 62.659 48.7074 60.618 48.7074 58.1006C48.7074 55.583 46.8907 53.5421 44.6499 53.5421H30.6819H29.8556L30.6819 62.6592H32.9801V62.659Z" fill="#FFCEBF"/>
<path d="M44.65 59.0864H32.9801C31.7109 59.0864 30.6819 60.2422 30.6819 61.6683V62.3529C30.6819 62.5221 30.804 62.659 30.9544 62.659H32.9799H44.6498C46.8908 62.659 48.7073 60.618 48.7073 58.1006C48.7073 57.4665 48.5919 56.8629 48.3837 56.3142C47.7652 57.944 46.3265 59.0864 44.65 59.0864Z" fill="#FFB09E"/>
<path d="M74.2849 54.6175L49.7631 68.8845C48.1609 69.8168 46.382 70.3033 44.5776 70.3033H23.4717C20.771 70.3033 18.1593 69.215 16.1135 67.2353C15.6853 66.8208 15.1352 66.6001 14.5702 66.6162L7.83557 66.8083V51.1561H6.71155V71.5049L14.3241 71.2879L14.9895 71.932C17.0353 73.9118 19.647 75 22.3476 75H43.4536C45.258 75 47.0368 74.5135 48.6391 73.5813L73.1609 59.3142C74.3256 58.6362 75 57.3022 75 55.9157C75 55.3863 74.903 54.8529 74.6953 54.3412C74.5667 54.4436 74.4288 54.5337 74.2849 54.6175Z" fill="#FFB09E"/>
<path d="M10.6397 51.6424V70.9657C10.6397 71.0758 10.6322 71.1826 10.6186 71.2877C10.4798 72.3946 9.63337 73.2472 8.60893 73.2472H1.05884C0.47405 73.2472 0 72.7146 0 72.0576V50.5504C0 49.8934 0.47405 49.3609 1.05884 49.3609H8.60893C9.58208 49.3609 10.3953 50.1287 10.5929 51.1559C10.6231 51.3118 10.6397 51.4746 10.6397 51.6424Z" fill="#99E6FC"/>
<path d="M116.881 17.096C117.577 16.2453 118.408 15.82 119.375 15.82C120.264 15.82 121.057 16.168 121.753 16.864C122.449 17.5213 122.797 18.314 122.797 19.242C122.797 20.0153 122.507 20.75 121.927 21.446L108.761 37.512V53.578C108.761 54.7767 108.413 55.7047 107.717 56.362C107.021 57.0193 106.132 57.348 105.049 57.348C103.928 57.348 103.019 57.0193 102.323 56.362C101.627 55.7047 101.279 54.7767 101.279 53.578V37.512L88.1131 21.446C87.5331 20.75 87.2431 20.0153 87.2431 19.242C87.2431 18.314 87.5911 17.5213 88.2871 16.864C88.9831 16.168 89.7758 15.82 90.6651 15.82C91.6318 15.82 92.4631 16.2453 93.1591 17.096L105.049 31.828L116.881 17.096ZM143.158 27.942C145.633 27.942 147.817 28.5413 149.712 29.74C151.607 30.9387 153.076 32.64 154.12 34.844C155.203 37.048 155.744 39.6193 155.744 42.558C155.744 45.4967 155.203 48.1067 154.12 50.388C153.076 52.6307 151.587 54.3707 149.654 55.608C147.759 56.8453 145.594 57.464 143.158 57.464C141.109 57.464 139.272 57.0193 137.648 56.13C136.063 55.2407 134.845 54.0033 133.994 52.418V53.868C133.994 54.912 133.665 55.7433 133.008 56.362C132.351 56.9807 131.481 57.29 130.398 57.29C129.315 57.29 128.445 56.9807 127.788 56.362C127.169 55.7433 126.86 54.912 126.86 53.868V19.184C126.86 18.1787 127.189 17.3667 127.846 16.748C128.542 16.1293 129.431 15.82 130.514 15.82C131.597 15.82 132.467 16.11 133.124 16.69C133.781 17.27 134.11 18.0627 134.11 19.068V32.756C134.961 31.2093 136.179 30.03 137.764 29.218C139.349 28.3673 141.147 27.942 143.158 27.942ZM141.244 51.838C143.525 51.838 145.304 51.026 146.58 49.402C147.856 47.778 148.494 45.4967 148.494 42.558C148.494 39.658 147.856 37.4347 146.58 35.888C145.343 34.3413 143.564 33.568 141.244 33.568C138.924 33.568 137.126 34.3607 135.85 35.946C134.613 37.4927 133.994 39.7353 133.994 42.674C133.994 45.6127 134.613 47.8747 135.85 49.46C137.126 51.0453 138.924 51.838 141.244 51.838ZM181.019 30.146C181.328 29.45 181.734 28.9473 182.237 28.638C182.778 28.29 183.358 28.116 183.977 28.116C184.866 28.116 185.659 28.4253 186.355 29.044C187.089 29.624 187.457 30.3587 187.457 31.248C187.457 31.6733 187.341 32.118 187.109 32.582L171.275 65.758C170.617 67.0727 169.593 67.73 168.201 67.73C167.311 67.73 166.519 67.44 165.823 66.86C165.165 66.3187 164.837 65.6227 164.837 64.772C164.837 64.3467 164.953 63.8633 165.185 63.322L169.129 55.028L158.341 32.582C158.147 32.1953 158.051 31.7507 158.051 31.248C158.051 30.3587 158.418 29.6047 159.153 28.986C159.926 28.3673 160.796 28.058 161.763 28.058C162.42 28.058 163.019 28.232 163.561 28.58C164.102 28.8893 164.527 29.392 164.837 30.088L172.957 48.01L181.019 30.146Z" fill="#D5EFC8"/>
</svg>
