<svg width="75" height="75" viewBox="0 0 75 75" fill="none" xmlns="http://www.w3.org/2000/svg">
<g clip-path="url(#clip0)">
<path fill-rule="evenodd" clip-rule="evenodd" d="M14.7243 25.0317L31.3292 27.0371L51.7853 25.0317C53.3701 25.0317 54.6583 23.739 54.6583 22.1587C54.6583 20.5739 53.3701 19.2812 51.7853 19.2812H49.9792L27.8585 14.6196L49.9792 9.9626H51.7853C53.3701 9.9626 54.6583 8.66988 54.6583 7.08507C54.6583 5.50025 53.3701 4.21207 51.7853 4.21207H14.7243C8.98726 4.21207 4.3125 8.88682 4.3125 14.6196C4.3125 17.3864 5.4104 20.0205 7.36699 21.9771C9.32358 23.9337 11.9575 25.0317 14.7243 25.0317V25.0317Z" fill="#FFE07D"/>
<path fill-rule="evenodd" clip-rule="evenodd" d="M14.7244 19.2812H49.9792C48.5006 16.1558 48.5095 13.0481 49.9792 9.96259H14.7244C12.1613 9.96259 10.0629 12.061 10.0629 14.6196C10.0629 15.8636 10.5542 17.0322 11.4308 17.9132C12.3118 18.7897 13.4804 19.2812 14.7244 19.2812V19.2812Z" fill="#F9F7F8"/>
<path fill-rule="evenodd" clip-rule="evenodd" d="M49.9792 9.96259H14.7244C12.1613 9.96259 10.0629 12.061 10.0629 14.6196C10.0629 15.3324 10.2267 16.0185 10.5277 16.6427C11.2848 15.0844 12.8828 13.9998 14.7244 13.9998L48.8902 14.0042C48.9743 12.6497 49.3417 11.3039 49.9792 9.96259Z" fill="#DDDAEC"/>
<path fill-rule="evenodd" clip-rule="evenodd" d="M51.7852 4.21207H38.0977C38.921 5.97398 39.5231 7.90845 39.8684 9.9626H49.9792H51.7853C53.3701 9.9626 54.6583 8.66988 54.6583 7.08506C54.6583 5.50025 53.37 4.21207 51.7852 4.21207V4.21207Z" fill="#FFD064"/>
<path fill-rule="evenodd" clip-rule="evenodd" d="M33.3388 50.7165L58.4962 47.9099C61.4222 47.9099 63.8172 45.5149 63.8172 42.5887V36.4708V30.3529C63.8172 27.4267 61.4223 25.0317 58.4962 25.0317H51.7851H14.7243H7.11896C5.57399 25.0317 4.31232 26.2933 4.31232 27.8383C4.31232 29.3833 5.57399 30.645 7.11896 30.645H9.76168L58.2039 36.4708L9.76183 42.2965H7.11896C5.57399 42.2965 4.31232 43.5581 4.31232 45.1031C4.31232 46.6481 5.57399 47.9098 7.11896 47.9098L33.3388 50.7165Z" fill="#A7E9A6"/>
<path fill-rule="evenodd" clip-rule="evenodd" d="M9.7619 42.2965H56.7875C57.5666 42.2965 58.204 41.659 58.204 40.8799V32.0615C58.204 31.2824 57.5665 30.6449 56.7875 30.6449H9.7619C10.6871 32.5839 11.1519 34.5229 11.1475 36.4707C11.1475 38.4053 10.6871 40.3487 9.7619 42.2965V42.2965Z" fill="#F9F7F8"/>
<path fill-rule="evenodd" clip-rule="evenodd" d="M56.7875 30.645H9.7619C10.2179 31.5968 10.5588 32.5486 10.7889 33.5003H53.5029C54.2776 33.5003 54.915 34.1378 54.915 34.9169V42.2965H56.7875C57.5666 42.2965 58.204 41.659 58.204 40.8799V32.0615C58.204 31.2825 57.5666 30.645 56.7875 30.645Z" fill="#DDDAEC"/>
<path fill-rule="evenodd" clip-rule="evenodd" d="M49.9792 19.2812H39.563C39.0717 21.3618 38.3013 23.2963 37.3098 25.0317H51.7854C53.3702 25.0317 54.6584 23.739 54.6584 22.1587C54.6584 20.5739 53.3702 19.2812 51.7854 19.2812H49.9792Z" fill="#FFD064"/>
<path fill-rule="evenodd" clip-rule="evenodd" d="M58.4962 25.0317H51.7852H47.5C48.4209 26.736 49.1291 28.6263 49.5806 30.645H56.7873C57.5665 30.645 58.2038 31.2825 58.2038 32.0616V40.88C58.2038 41.6591 57.5663 42.2966 56.7873 42.2966H54.9148H49.2176C48.6199 44.3418 47.7523 46.2366 46.6589 47.9099H58.4962C61.4222 47.9099 63.8172 45.5149 63.8172 42.5887V36.4708V30.3529C63.8172 27.4266 61.4224 25.0317 58.4962 25.0317V25.0317Z" fill="#7FDBAE"/>
<path fill-rule="evenodd" clip-rule="evenodd" d="M7.11899 47.9099H6.41514C3.48911 47.9099 1.09863 50.3049 1.09863 53.2311V59.349V65.4669C1.09863 68.3931 3.49351 70.7881 6.41514 70.7881H71.0947C72.2634 70.7881 73.2727 70.0622 73.6932 69.0396C73.8261 68.712 73.9012 68.3534 73.9012 67.9815C73.9012 67.6052 73.8259 67.2466 73.6932 66.9191C73.2727 65.8964 72.2634 65.1749 71.0947 65.1749H68.452L6.71177 59.8626L68.452 53.5233H71.0947C72.2634 53.5233 73.2727 52.8018 73.6932 51.7792C73.8261 51.4516 73.9012 51.093 73.9012 50.7167C73.9012 50.3448 73.8259 49.9863 73.6932 49.6586C73.2727 48.636 72.2634 47.9101 71.0947 47.9101C49.771 47.9099 28.4429 47.9099 7.11899 47.9099V47.9099Z" fill="#FFE07D"/>
<path fill-rule="evenodd" clip-rule="evenodd" d="M68.452 65.1747H56.8893C56.1368 67.2598 55.0921 69.1546 53.8215 70.788H71.0948C72.2634 70.788 73.2727 70.062 73.6932 69.0394C73.8261 68.7119 73.9013 68.3533 73.9013 67.9814C73.9013 67.6051 73.826 67.2465 73.6932 66.9189C73.2727 65.8963 72.2634 65.1747 71.0948 65.1747H68.452Z" fill="#FFD064"/>
<path fill-rule="evenodd" clip-rule="evenodd" d="M71.0947 47.9099H58.4962H56.2651C57.0442 49.6408 57.6196 51.5266 57.9384 53.5232H68.452H71.0947C72.2634 53.5232 73.2726 52.8016 73.6932 51.779C73.8261 51.4515 73.9012 51.0929 73.9012 50.7166C73.9012 50.3446 73.8259 49.9862 73.6932 49.6585C73.2728 48.6359 72.2635 47.9099 71.0947 47.9099Z" fill="#FFD064"/>
<path fill-rule="evenodd" clip-rule="evenodd" d="M67.0664 59.3489C67.062 57.4011 67.5268 55.4577 68.452 53.5231C35.9728 53.5231 28.9209 53.5231 8.1283 53.5231C7.34915 53.5231 6.71179 54.1606 6.71179 54.9397V63.7581C6.71179 64.5372 7.34929 65.1747 8.1283 65.1747H68.452C67.5268 63.2269 67.0664 61.2835 67.0664 59.3489V59.3489Z" fill="#F9F7F8"/>
<path fill-rule="evenodd" clip-rule="evenodd" d="M20.1116 53.5232H8.12842C7.34927 53.5232 6.71191 54.1607 6.71191 54.9399V59.349C6.71191 58.5699 7.34941 57.9324 8.12842 57.9324H20.1117H21.6302H27.8055H29.3194H67.1462C67.3144 56.4627 67.7527 54.9929 68.4521 53.5232H29.3237H20.1116Z" fill="#DDDAEC"/>
<path fill-rule="evenodd" clip-rule="evenodd" d="M20.1116 58.2687C20.0584 58.9416 20.3196 59.1584 20.8864 58.6406L24.7155 54.9885L28.5446 58.6406C29.1112 59.1586 29.3768 58.9416 29.3193 58.2687C29.3237 51.0041 29.3237 43.7353 29.3281 36.4707H20.1072C20.1072 43.7353 20.1116 51.0043 20.1116 58.2687V58.2687Z" fill="#EB5468"/>
<path fill-rule="evenodd" clip-rule="evenodd" d="M29.3282 36.4708H26.1808C26.1765 43.1067 26.1765 49.7426 26.1765 56.3786L27.8055 57.9325L28.5448 58.6408C29.1114 59.1587 29.377 58.9418 29.3196 58.2688V57.9324C29.3237 50.7785 29.3237 43.6247 29.3282 36.4708V36.4708Z" fill="#E5384F"/>
<path d="M71.0949 64.0761H69.1642C67.8248 60.8936 67.8242 57.7883 69.1627 54.6217H71.0949C73.2482 54.6217 75 52.8699 75 50.7164C75 48.5631 73.2482 46.8112 71.0949 46.8112H63.3256C64.3146 45.6815 64.9157 44.2045 64.9157 42.5886V30.3528C64.9157 26.8128 62.036 23.9329 58.4962 23.9329H55.337C55.605 23.3986 55.7568 22.7961 55.7568 22.1586C55.7568 19.9661 53.9752 18.1824 51.7853 18.1824H50.6985C49.7287 15.7849 49.7281 13.4432 50.6969 11.0611H51.7853C53.9752 11.0611 55.7568 9.27731 55.7568 7.08488C55.7568 4.89494 53.9752 3.11325 51.7853 3.11325H14.7243C8.37744 3.11325 3.21387 8.27492 3.21387 14.6195C3.21387 17.6877 4.41299 20.5765 6.59004 22.7537C7.0229 23.1866 7.48491 23.579 7.96978 23.9328H7.11899C4.96567 23.9328 3.21387 25.6846 3.21387 27.8381C3.21387 29.9915 4.96567 31.7433 7.11899 31.7433H9.05112C10.3897 34.9096 10.3893 38.0151 9.04966 41.1976H7.11899C4.96567 41.1976 3.21387 42.9494 3.21387 45.1029C3.21387 45.9267 3.47095 46.6912 3.90806 47.3218C1.61294 48.301 0 50.5809 0 53.231V65.467C0 69.0069 2.87783 71.8866 6.41514 71.8866H71.0947C73.248 71.8866 74.9999 70.1348 74.9999 67.9814C75 65.828 73.2482 64.0761 71.0949 64.0761V64.0761ZM71.0949 49.0084C72.0366 49.0084 72.8027 49.7747 72.8027 50.7164C72.8027 51.6582 72.0366 52.4244 71.0949 52.4244H51.2672C50.6603 52.4244 50.1686 52.9163 50.1686 53.5231C50.1686 54.1298 50.6603 54.6217 51.2672 54.6217H66.806C66.3766 55.8276 66.1141 57.0381 66.0149 58.2503C66.0149 58.2503 65.5761 60.4248 66.8083 64.0761H8.12842C7.95615 64.0761 7.81055 63.9305 7.81055 63.7581V54.9397C7.81055 54.7675 7.95615 54.6218 8.12842 54.6218H19.0124L19.0131 58.23C18.9438 59.3102 19.4713 59.7359 19.7952 59.8941C20.1234 60.0547 20.7979 60.2101 21.6277 59.4516C21.6334 59.4463 21.6391 59.441 21.6447 59.4358L24.7156 56.5068L27.7865 59.4358C27.792 59.4412 27.7978 59.4465 27.8035 59.4516C28.2892 59.8956 28.7216 60.0267 29.0631 60.0267C29.307 60.0267 29.5044 59.9597 29.6416 59.8922C29.9659 59.7325 30.4926 59.3048 30.4181 58.2271L30.4195 54.6218H45.8578C46.4647 54.6218 46.9564 54.13 46.9564 53.5232C46.9564 52.9165 46.4647 52.4246 45.8578 52.4246H30.4203L30.4217 49.0086H71.0949V49.0084ZM12.1995 35.3722C12.1005 34.16 11.8329 32.9496 11.4038 31.7436H56.7876C56.96 31.7436 57.1056 31.8892 57.1056 32.0615V40.8799C57.1056 41.0521 56.96 41.1977 56.7876 41.1977H30.425L30.4264 37.5692H38.1152C38.7221 37.5692 39.2139 37.0773 39.2139 36.4705C39.2139 35.8638 38.7221 35.3719 38.1152 35.3719H12.1995V35.3722ZM19.0096 41.1979H11.4013C11.8301 39.9903 12.0981 38.7799 12.1983 37.5693H19.0088L19.0096 41.1979ZM28.2292 37.5695L28.2212 56.814L25.4736 54.1934C25.0493 53.7885 24.3816 53.7885 23.9571 54.1934L21.2099 56.8137L21.206 37.5693H28.2292V37.5695ZM5.41113 14.6196C5.41113 9.48664 9.58901 5.31066 14.7243 5.31066H51.7853C52.7637 5.31066 53.5595 6.10666 53.5595 7.08503C53.5595 8.06589 52.7635 8.86393 51.7853 8.86393H31.5327C30.9259 8.86393 30.434 9.35583 30.434 9.96257C30.434 10.5693 30.9259 11.0612 31.5327 11.0612H48.356C47.5805 13.4246 47.5815 15.8089 48.3589 18.1825H14.7243C13.7795 18.1825 12.8849 17.8103 12.2096 17.1384C11.5337 16.459 11.1615 15.5646 11.1615 14.6196C11.1615 12.6574 12.7598 11.0612 14.7243 11.0612H26.1233C26.73 11.0612 27.2219 10.5693 27.2219 9.96257C27.2219 9.35583 26.73 8.86393 26.1233 8.86393H14.7243C11.5482 8.86393 8.96426 11.4459 8.96426 14.6196C8.96426 16.1493 9.56367 17.5943 10.6559 18.692C11.7498 19.7804 13.1946 20.3798 14.7243 20.3798H51.7853C52.7637 20.3798 53.5595 21.1779 53.5595 22.1587C53.5595 23.1371 52.7635 23.9331 51.7853 23.9331H14.7243C12.243 23.9331 9.90601 22.9626 8.1438 21.2003C6.38159 19.4381 5.41113 17.101 5.41113 14.6196V14.6196ZM7.11899 29.5464C6.17725 29.5464 5.41113 28.7802 5.41113 27.8383C5.41113 26.8966 6.17725 26.1303 7.11899 26.1303H58.4962C60.8244 26.1303 62.7185 28.0245 62.7185 30.3529V42.5887C62.7185 44.9171 60.8243 46.8113 58.4962 46.8113H30.4226L30.4241 43.3953H56.7875C58.1744 43.3953 59.3027 42.2669 59.3027 40.8801V32.0618C59.3027 30.6749 58.1744 29.5466 56.7875 29.5466H7.11899V29.5464ZM7.11899 43.3951H19.01L19.0107 46.8112H7.11914C6.17739 46.8112 5.41128 46.0449 5.41128 45.1031C5.41113 44.1614 6.17725 43.3951 7.11899 43.3951V43.3951ZM71.0949 69.6894H6.41514C4.0894 69.6894 2.19727 67.7952 2.19727 65.467V53.231C2.19727 50.9026 4.0894 49.0084 6.41514 49.0084H19.011L19.0118 52.4244H8.12842C6.7415 52.4244 5.61328 53.5528 5.61328 54.9396V63.7579C5.61328 65.1448 6.74165 66.2732 8.12842 66.2732H71.0949C72.0366 66.2732 72.8027 67.0395 72.8027 67.9812C72.8027 68.923 72.0366 69.6894 71.0949 69.6894Z" fill="black"/>
</g>
<defs>
<clipPath id="clip0">
<rect width="75" height="75" fill="white"/>
</clipPath>
</defs>
</svg>
