<svg width="55" height="55" viewBox="0 0 55 55" fill="none" xmlns="http://www.w3.org/2000/svg">
<path d="M32.886 36.6442C41.893 36.6442 49.1946 28.4411 49.1946 18.3221C49.1946 8.20309 41.893 0 32.886 0C23.879 0 16.5774 8.20309 16.5774 18.3221C16.5774 28.4411 23.879 36.6442 32.886 36.6442Z" fill="#D5EFC8"/>
<path d="M32.8716 37.2688C32.4133 37.2688 32.0417 36.8514 32.0417 36.3366V25.8725C32.0417 25.3576 32.4133 24.9402 32.8716 24.9402C33.3298 24.9402 33.7014 25.3576 33.7014 25.8725V36.3366C33.7014 36.8514 33.3298 37.2688 32.8716 37.2688Z" fill="#97DA7B"/>
<path d="M32.8717 29.468L29.5731 26.725C24.9539 22.8839 24.9766 15.1113 29.6181 11.3045L32.4283 8.99966C32.6488 8.8188 32.9635 8.94695 33.0281 9.24503C33.3308 10.6426 33.2664 12.0994 32.8718 13.6095L34.4655 16.9183L32.8717 29.468Z" fill="#ADE194"/>
<path d="M37.3848 6.39479L35.5276 10.2201C35.3682 10.5482 35.1724 10.8524 34.9448 11.1251L31.9628 14.6987C30.469 16.4887 29.9504 19.0447 30.6064 21.3854L32.8716 29.4681L38.0398 23.4636C42.0867 18.7617 42.4473 11.435 38.8865 6.26066C38.4894 5.68353 37.6957 5.75438 37.3848 6.39479Z" fill="#80D261"/>
<path d="M23.5488 39.2643L31.0215 34.6606C35.7526 31.746 41.6023 32.4762 45.6486 36.4865L48.6968 39.5077V42.9848L26.1227 50.8129L23.5488 43.1568V39.2643Z" fill="#DC8758"/>
<path d="M54.7687 39.83C54.2288 38.5174 52.8889 37.881 51.6741 38.3608L34.8455 45.0097C34.8499 45.0047 34.8532 45.001 34.8576 44.996C35.3965 44.3919 35.7295 43.5554 35.7295 42.6318C35.7295 41.4634 35.1962 40.4354 34.3874 39.8375C33.9194 39.4907 33.3573 39.2893 32.7543 39.2893H24.8379H22.5111C21.4999 38.1532 20.1279 37.5143 18.6973 37.5143H4.92175V52.4367L10.5043 52.2776L10.9922 52.75C12.4925 54.2018 14.4077 54.9998 16.3882 54.9998H31.8659C33.1892 54.9998 34.4936 54.6431 35.6686 53.9594L53.6512 43.4969C54.5054 42.9997 55 42.0215 55 41.0047C55 40.6106 54.9258 40.2104 54.7687 39.83Z" fill="#FFCEBF"/>
<path d="M24.1854 45.95H32.7434C34.3867 45.95 35.7189 44.4533 35.7189 42.6071C35.7189 40.7609 34.3866 39.2643 32.7434 39.2643H22.5002H21.8942L22.5002 45.9501H24.1854V45.95Z" fill="#FFCEBF"/>
<path d="M32.7432 43.3301H24.1853C23.2546 43.3301 22.5 44.1777 22.5 45.2234V45.7255C22.5 45.8496 22.5895 45.95 22.6998 45.95H24.1852H32.7431C34.3865 45.95 35.7186 44.4533 35.7186 42.6071C35.7186 42.1421 35.6339 41.6995 35.4813 41.2971C35.0277 42.4923 33.9727 43.3301 32.7432 43.3301Z" fill="#FFB09E"/>
<path d="M54.4755 40.0528L36.4929 50.5153C35.3179 51.1989 34.0134 51.5557 32.6902 51.5557H17.2125C15.232 51.5557 13.3168 50.7577 11.8165 49.3058C11.5025 49.0019 11.0991 48.8401 10.6847 48.8519L5.74603 48.9927V37.5144H4.92175V52.4369L10.5043 52.2777L10.9922 52.7501C12.4925 54.2019 14.4077 55 16.3882 55H31.8659C33.1892 55 34.4936 54.6432 35.6686 53.9595L53.6512 43.4971C54.5054 42.9998 55 42.0216 55 41.0048C55 40.6166 54.9288 40.2254 54.7765 39.8502C54.6822 39.9252 54.5811 39.9914 54.4755 40.0528Z" fill="#FFB09E"/>
<path d="M7.80245 37.8711V52.0415C7.80245 52.1223 7.79692 52.2006 7.78696 52.2777C7.68517 53.0894 7.06447 53.7146 6.31322 53.7146H0.776484C0.347636 53.7146 0 53.3241 0 52.8423V37.0703C0 36.5886 0.347636 36.198 0.776484 36.198H6.31322C7.02686 36.198 7.62321 36.7611 7.76816 37.5144C7.79028 37.6287 7.80245 37.748 7.80245 37.8711Z" fill="#99E6FC"/>
</svg>
