<svg width="46" height="51" viewBox="0 0 46 51" fill="none" xmlns="http://www.w3.org/2000/svg">
<path d="M22.8445 49.9694C35.1267 49.9694 45.0834 38.7833 45.0834 24.9847C45.0834 11.186 35.1267 0 22.8445 0C10.5622 0 0.605469 11.186 0.605469 24.9847C0.605469 38.7833 10.5622 49.9694 22.8445 49.9694Z" fill="#FFF500"/>
<path d="M22.825 50.8212C22.2001 50.8212 21.6934 50.252 21.6934 49.5499V35.2807C21.6934 34.5786 22.2001 34.0094 22.825 34.0094C23.4499 34.0094 23.9565 34.5786 23.9565 35.2807V49.5499C23.9565 50.252 23.4499 50.8212 22.825 50.8212Z" fill="#97DA7B"/>
<path d="M22.825 40.1837L18.327 36.4433C12.0281 31.2055 12.059 20.6065 18.3884 15.4153L22.2204 12.2724C22.5211 12.0257 22.9502 12.2005 23.0383 12.607C23.4511 14.5127 23.3633 16.4993 22.8252 18.5585L24.9984 23.0705L22.825 40.1837Z" fill="#ADE194"/>
<path d="M28.9793 8.72029L26.4467 13.9366C26.2295 14.384 25.9624 14.7988 25.6521 15.1707L21.5857 20.0437C19.5487 22.4847 18.8416 25.9702 19.7361 29.162L22.825 40.1839L29.8725 31.9959C35.3911 25.5843 35.8828 15.5933 31.0272 8.53739C30.4857 7.75039 29.4033 7.84701 28.9793 8.72029V8.72029Z" fill="#80D261"/>
</svg>
