<svg width="100" height="100" viewBox="0 0 100 100" fill="none" xmlns="http://www.w3.org/2000/svg">
<g clip-path="url(#clip0)">
<path d="M91.9356 37.0978C91.9356 10.0387 61.6461 -9.94661 33.1223 9.19844C31.3078 10.416 29.7414 11.9903 28.5254 13.8063C14.5608 34.6643 21.488 56.4247 36.7882 66.6281C42.1333 70.1925 45.1621 76.3534 45.1621 82.7789V88.7099H67.7424V82.56C67.7424 76.2297 70.7587 70.1791 76.0344 66.6808C85.6164 60.3294 91.9356 49.4542 91.9356 37.0978V37.0978Z" fill="#31829B"/>
<path d="M25.8076 17.7433C25.8076 13.2898 22.1968 9.67889 17.7432 9.67889C22.1968 9.67889 25.8076 6.06724 25.8076 1.6145C25.8076 6.06724 29.4185 9.67889 33.872 9.67889C29.4185 9.67889 25.8076 13.2898 25.8076 17.7433Z" fill="#F8CF6A"/>
<path d="M16.1303 33.8719C16.1303 29.4184 12.5195 25.8076 8.06594 25.8076C12.5195 25.8076 16.1303 22.1959 16.1303 17.7432C16.1303 22.1959 19.7412 25.8076 24.1947 25.8076C19.7412 25.8076 16.1303 29.4184 16.1303 33.8719Z" fill="#F8CF6A"/>
<path d="M48.3879 88.71V90.3228C48.3879 94.7756 51.9988 98.3872 56.4523 98.3872C60.9058 98.3872 64.5167 94.7756 64.5167 90.3228V88.71" fill="#999999"/>
<path d="M54.0331 97.9779C57.2959 96.9454 59.6782 93.9291 59.6782 90.3229V88.71H48.3879V90.3229C48.3879 93.9275 50.7702 96.9438 54.0331 97.9779V97.9779Z" fill="#BAB8B9"/>
<path d="M53.288 14.5175C53.288 11.8446 51.1215 9.67883 48.4493 9.67883C45.8733 9.67883 43.7879 11.6965 43.6398 14.234C42.772 13.4157 41.6104 12.9046 40.3235 12.9046C37.6506 12.9046 35.4849 15.0703 35.4849 17.7432C35.4849 19.0025 35.9787 20.1413 36.7686 21.0028C33.3609 21.1769 30.6463 23.9703 30.6463 27.4205C30.6463 29.398 31.5559 31.1463 32.9561 32.33C32.7269 32.2961 32.4978 32.2591 32.2591 32.2591C29.5862 32.2591 27.4205 34.4249 27.4205 37.0978C27.4205 39.7699 29.5862 41.9364 32.2591 41.9364C32.4978 41.9364 32.7269 41.8994 32.9561 41.8655C31.5559 43.0492 30.6463 44.7975 30.6463 46.775C30.6463 50.1638 33.2672 52.9107 36.5867 53.1746C35.7881 54.0377 35.288 55.1828 35.288 56.4523C35.288 59.1244 37.4545 61.2909 40.1266 61.2909C41.4733 61.2909 42.6893 60.7397 43.565 59.8521C43.6603 62.4423 45.7749 64.5167 48.3879 64.5167C51.0608 64.5167 53.2265 62.3502 53.2265 59.6781L53.288 14.5175Z" fill="#FEFEFE"/>
<path d="M59.6166 14.5175C59.6166 11.8446 61.7831 9.67883 64.4553 9.67883C67.0313 9.67883 69.1167 11.6965 69.2648 14.234C70.1326 13.4157 71.2943 12.9046 72.5811 12.9046C75.254 12.9046 77.4197 15.0703 77.4197 17.7432C77.4197 19.0025 76.9259 20.1413 76.136 21.0028C79.5437 21.1769 82.2584 23.9703 82.2584 27.4205C82.2584 29.398 81.3488 31.1463 79.9485 32.33C80.1777 32.2961 80.4069 32.2591 80.6455 32.2591C83.3184 32.2591 85.4841 34.4249 85.4841 37.0978C85.4841 39.7699 83.3184 41.9364 80.6455 41.9364C80.4069 41.9364 80.1777 41.8994 79.9485 41.8655C81.3488 43.0492 82.2584 44.7975 82.2584 46.775C82.2584 50.1638 79.6374 52.9107 76.318 53.1746C77.1165 54.0377 77.6166 55.1828 77.6166 56.4523C77.6166 59.1244 75.4501 61.2909 72.778 61.2909C71.4313 61.2909 70.2153 60.7397 69.3388 59.8521C69.2443 62.4423 67.1297 64.5167 64.5167 64.5167C61.8438 64.5167 59.6781 62.3502 59.6781 59.6781L59.6166 14.5175Z" fill="white"/>
<path d="M48.3879 66.1295C44.8298 66.1295 41.9364 63.2361 41.9364 59.678H45.1621C45.1621 61.4571 46.6089 62.9038 48.3879 62.9038C50.167 62.9038 51.6137 61.4571 51.6137 59.678V14.5174C51.6137 12.7384 50.167 11.2917 48.3879 11.2917C46.6089 11.2917 45.1621 12.7384 45.1621 14.5174H41.9364C41.9364 10.9593 44.8298 8.06592 48.3879 8.06592C51.946 8.06592 54.8394 10.9593 54.8394 14.5174V59.678C54.8394 63.2361 51.946 66.1295 48.3879 66.1295Z" fill="black"/>
<path d="M40.3236 24.195C36.7655 24.195 33.872 21.3015 33.872 17.7434C33.872 14.1852 36.7655 11.2917 40.3236 11.2917C43.8818 11.2917 46.7752 14.1852 46.7752 17.7434H43.5494C43.5494 15.9643 42.1027 14.5176 40.3236 14.5176C38.5445 14.5176 37.0978 15.9643 37.0978 17.7434C37.0978 19.5224 38.5445 20.9692 40.3236 20.9692V24.195Z" fill="black"/>
<path d="M37.0978 35.4849C32.6513 35.4849 29.0334 31.8669 29.0334 27.4205C29.0334 22.974 32.6513 19.3561 37.0978 19.3561V22.5818C34.4304 22.5818 32.2591 24.7531 32.2591 27.4205C32.2591 30.0879 34.4304 32.2591 37.0978 32.2591C39.7652 32.2591 41.9364 30.0879 41.9364 27.4205H45.1622C45.1622 31.8669 41.5442 35.4849 37.0978 35.4849Z" fill="black"/>
<path d="M40.3236 62.904C36.7655 62.904 33.872 60.0105 33.872 56.4523C33.872 52.8942 36.7655 50.0007 40.3236 50.0007V53.2265C38.5445 53.2265 37.0978 54.6733 37.0978 56.4523C37.0978 58.2314 38.5445 59.6782 40.3236 59.6782C42.1027 59.6782 43.5494 58.2314 43.5494 56.4523H46.7752C46.7752 60.0105 43.8818 62.904 40.3236 62.904Z" fill="black"/>
<path d="M37.0978 54.8395C32.6513 54.8395 29.0334 51.2215 29.0334 46.7751C29.0334 42.3286 32.6513 38.7107 37.0978 38.7107C41.5442 38.7107 45.1622 42.3286 45.1622 46.7751H41.9364C41.9364 44.1077 39.7652 41.9365 37.0978 41.9365C34.4304 41.9365 32.2591 44.1077 32.2591 46.7751C32.2591 49.4425 34.4304 51.6137 37.0978 51.6137V54.8395Z" fill="black"/>
<path d="M32.2592 43.5495C28.7011 43.5495 25.8076 40.656 25.8076 37.0979C25.8076 33.5397 28.7011 30.6462 32.2592 30.6462V33.872C30.4802 33.872 29.0334 35.3188 29.0334 37.0979C29.0334 38.8769 30.4802 40.3237 32.2592 40.3237V43.5495Z" fill="black"/>
<path d="M64.5167 66.1295C60.9586 66.1295 58.0652 63.2361 58.0652 59.678V14.5174C58.0652 10.9593 60.9586 8.06592 64.5167 8.06592C68.0748 8.06592 70.9682 10.9593 70.9682 14.5174H67.7424C67.7424 12.7384 66.2957 11.2917 64.5167 11.2917C62.7376 11.2917 61.2909 12.7384 61.2909 14.5174V59.678C61.2909 61.4571 62.7376 62.9038 64.5167 62.9038C66.2957 62.9038 67.7424 61.4571 67.7424 59.678H70.9682C70.9682 63.2361 68.0748 66.1295 64.5167 66.1295Z" fill="black"/>
<path d="M72.5812 24.195V20.9692C74.3603 20.9692 75.807 19.5224 75.807 17.7434C75.807 15.9643 74.3603 14.5176 72.5812 14.5176C70.8021 14.5176 69.3554 15.9643 69.3554 17.7434H66.1296C66.1296 14.1852 69.023 11.2917 72.5812 11.2917C76.1393 11.2917 79.0328 14.1852 79.0328 17.7434C79.0328 21.3015 76.1393 24.195 72.5812 24.195Z" fill="black"/>
<path d="M75.8068 35.4849C71.3604 35.4849 67.7425 31.8669 67.7425 27.4205H70.9682C70.9682 30.0879 73.1395 32.2591 75.8068 32.2591C78.4742 32.2591 80.6455 30.0879 80.6455 27.4205C80.6455 24.7531 78.4742 22.5818 75.8068 22.5818V19.3561C80.2533 19.3561 83.8712 22.974 83.8712 27.4205C83.8712 31.8669 80.2533 35.4849 75.8068 35.4849Z" fill="black"/>
<path d="M72.5812 62.904C69.023 62.904 66.1296 60.0105 66.1296 56.4523H69.3554C69.3554 58.2314 70.8021 59.6782 72.5812 59.6782C74.3603 59.6782 75.807 58.2314 75.807 56.4523C75.807 54.6733 74.3603 53.2265 72.5812 53.2265V50.0007C76.1393 50.0007 79.0328 52.8942 79.0328 56.4523C79.0328 60.0105 76.1393 62.904 72.5812 62.904Z" fill="black"/>
<path d="M75.8068 54.8395V51.6137C78.4742 51.6137 80.6455 49.4425 80.6455 46.7751C80.6455 44.1077 78.4742 41.9365 75.8068 41.9365C73.1395 41.9365 70.9682 44.1077 70.9682 46.7751H67.7425C67.7425 42.3286 71.3604 38.7107 75.8068 38.7107C80.2533 38.7107 83.8712 42.3286 83.8712 46.7751C83.8712 51.2215 80.2533 54.8395 75.8068 54.8395Z" fill="black"/>
<path d="M80.6455 43.5495V40.3237C82.4246 40.3237 83.8713 38.8769 83.8713 37.0979C83.8713 35.3188 82.4246 33.872 80.6455 33.872V30.6462C84.2036 30.6462 87.0971 33.5397 87.0971 37.0979C87.0971 40.656 84.2036 43.5495 80.6455 43.5495Z" fill="black"/>
<path d="M67.7424 90.3225H45.1621C44.2714 90.3225 43.5493 89.6011 43.5493 88.7096V82.8338C43.5493 76.7288 40.6763 71.1648 35.8637 67.9485C25.1382 60.7827 18.9726 48.8066 19.3742 35.917L22.5976 36.017C22.2322 47.7875 27.8623 58.7209 37.6561 65.2677C43.3673 69.0826 46.775 75.6498 46.775 82.8338V87.0967H66.1296V82.5613C66.1296 75.5175 69.4987 69.0794 75.1437 65.3354C84.6485 59.0375 90.3228 48.4813 90.3228 37.0975C90.3228 27.651 86.5292 18.8817 79.6406 12.4089C72.7567 5.94167 63.7473 2.7041 54.2811 3.29476L54.081 0.0753012C64.4411 -0.574418 74.3113 2.97738 81.8488 10.0589C89.284 17.0444 93.5485 26.9004 93.5485 37.0975C93.5485 49.5634 87.334 61.1245 76.9259 68.0257C72.1857 71.168 69.3553 76.602 69.3553 82.5613V88.7096C69.3553 89.6011 68.6324 90.3225 67.7424 90.3225V90.3225Z" fill="black"/>
<path d="M56.4523 100C51.1152 100 46.775 95.66 46.775 90.3228V88.71H50.0008V90.3228C50.0008 93.8809 52.8942 96.7744 56.4523 96.7744C60.0104 96.7744 62.9038 93.8809 62.9038 90.3228V88.71H66.1296V90.3228C66.1296 95.66 61.7894 100 56.4523 100V100Z" fill="black"/>
<path d="M40.3235 80.6455H72.5811V83.8713H40.3235V80.6455Z" fill="black"/>
<path d="M37.0978 74.194H75.8068V77.4197H37.0978V74.194Z" fill="black"/>
<path d="M25.8076 19.3561C24.9169 19.3561 24.1947 18.6347 24.1947 17.7432C24.1947 14.1852 21.3013 11.2917 17.7432 11.2917C16.8525 11.2917 16.1303 10.5704 16.1303 9.67886C16.1303 8.78658 16.8525 8.06598 17.7432 8.06598C21.3013 8.06598 24.1947 5.17256 24.1947 1.61447C24.1947 0.722184 24.9169 0.00158691 25.8076 0.00158691C26.6975 0.00158691 27.4205 0.722184 27.4205 1.61447C27.4205 5.17256 30.3139 8.06598 33.872 8.06598C34.7619 8.06598 35.4849 8.78658 35.4849 9.67886C35.4849 10.5704 34.7619 11.2917 33.872 11.2917C30.3139 11.2917 27.4205 14.1852 27.4205 17.7432C27.4205 18.6347 26.6975 19.3561 25.8076 19.3561ZM23.0867 9.67886C24.164 10.3947 25.0917 11.3224 25.8076 12.3998C26.5235 11.3224 27.4512 10.3947 28.5285 9.67886C27.4512 8.96298 26.5235 8.03526 25.8076 6.95791C25.0917 8.03526 24.164 8.96298 23.0867 9.67886Z" fill="black"/>
<path d="M16.1303 35.4849C15.2396 35.4849 14.5175 34.7635 14.5175 33.872C14.5175 30.3139 11.624 27.4205 8.06595 27.4205C7.17524 27.4205 6.45307 26.6991 6.45307 25.8076C6.45307 24.9154 7.17524 24.1948 8.06595 24.1948C11.624 24.1948 14.5175 21.3013 14.5175 17.7432C14.5175 16.851 15.2396 16.1304 16.1303 16.1304C17.0203 16.1304 17.7432 16.851 17.7432 17.7432C17.7432 21.3013 20.6366 24.1948 24.1947 24.1948C25.0846 24.1948 25.8076 24.9154 25.8076 25.8076C25.8076 26.6991 25.0846 27.4205 24.1947 27.4205C20.6366 27.4205 17.7432 30.3139 17.7432 33.872C17.7432 34.7635 17.0203 35.4849 16.1303 35.4849ZM13.4094 25.8076C14.4867 26.5235 15.4129 27.4512 16.1303 28.5286C16.8462 27.4512 17.7739 26.5251 18.8513 25.8076C17.7739 25.0918 16.8478 24.164 16.1303 23.0867C15.4145 24.164 14.4867 25.0918 13.4094 25.8076Z" fill="black"/>
</g>
<defs>
<clipPath id="clip0">
<rect width="100" height="100" fill="white"/>
</clipPath>
</defs>
</svg>
