<svg width="90" height="90" viewBox="0 0 90 90" fill="none" xmlns="http://www.w3.org/2000/svg">
<path d="M21.742 35.5122L0 29.5522V73.586L21.742 40.0601V35.5122Z" fill="#D5EFC8"/>
<path d="M21.742 2.05811L4.93902 6.22415C2.21131 6.90065 0 9.66027 0 12.388V20.3553L21.742 26.3152V2.05811Z" fill="#D5EFC8"/>
<path d="M85.061 1.65895L57.0618 7.97327V50.6696L61.3005 51.9265L90 8.31594V5.48425C90 2.75654 87.7887 1.04376 85.061 1.65895Z" fill="#D5EFC8"/>
<path d="M90 60.4374V16.1147L65.5947 53.2002L90 60.4374Z" fill="#D5EFC8"/>
<path d="M57.0618 67.6653V88.4661L85.061 82.1518C87.7887 81.5366 90 78.8266 90 76.0989V69.6343L61.356 61.14L57.0618 67.6653Z" fill="#D5EFC8"/>
<path d="M0 81.3848V83.0026C0 85.7304 2.21131 87.3933 4.93902 86.717L21.742 82.551V47.8591L0 81.3848Z" fill="#D5EFC8"/>
<path d="M21.742 26.3153L0 20.3553V29.5523L21.742 35.5122V26.3153Z" fill="#F6C358"/>
<path d="M21.742 40.0601L0 73.5861V81.3848L21.742 47.8591V40.0601Z" fill="#F6C358"/>
<path d="M57.0618 50.6696V59.8666V67.6653L61.356 61.1398L90 69.6343V60.4374L65.5947 53.2002L90 16.1147V8.31595L61.3005 51.9265L57.0618 50.6696Z" fill="#F6C358"/>
<path d="M21.742 35.5122V40.0601L24.2462 37.2271L21.742 35.5122Z" fill="#D5EFC8"/>
<path d="M29.0378 31.3114L50.7261 6.77441L21.742 2.05814V26.3153L29.0378 31.3114Z" fill="#D5EFC8"/>
<path d="M33.3318 34.252L57.0618 50.5014V7.8051L56.7529 7.75494L33.3318 34.252Z" fill="#D5EFC8"/>
<path d="M40.9876 85.6825L57.0618 88.298V67.4972L40.9876 85.6825Z" fill="#D5EFC8"/>
<path d="M57.0618 59.6984L28.5404 40.1677L21.742 47.8591V82.551L34.9612 84.7019L57.0618 59.6984Z" fill="#D5EFC8"/>
<path d="M56.7529 7.75495L50.7261 6.77441L29.0378 31.3114L21.742 26.3153V35.5122L24.2462 37.2271L21.742 40.0601V47.8591L28.5404 40.1677L57.0618 59.6984V50.5015L33.3318 34.252L56.7529 7.75495Z" fill="#F6C358"/>
<path d="M40.9876 85.6825L57.0618 67.4972V59.6984L34.9612 84.702L40.9876 85.6825Z" fill="#F6C358"/>
<path d="M20.2692 13.8661C20.2692 17.7827 13.1775 29.6341 13.1775 29.6341C13.4487 29.6341 6.08582 17.7829 6.08582 13.8661C6.08582 9.94935 9.26094 6.77441 13.1775 6.77441C17.0941 6.77441 20.2692 9.94935 20.2692 13.8661Z" fill="#CE412D"/>
<path d="M13.1771 17.9689C15.4398 17.9689 17.274 16.1347 17.274 13.8721C17.274 11.6094 15.4398 9.77521 13.1771 9.77521C10.9145 9.77521 9.08026 11.6094 9.08026 13.8721C9.08026 16.1347 10.9145 17.9689 13.1771 17.9689Z" fill="white"/>
<path d="M72.6864 59.0183C72.6864 62.9348 65.5947 74.7861 65.5947 74.7861C65.8659 74.7861 58.503 62.9348 58.503 59.0183C58.503 55.1017 61.6781 51.9265 65.5947 51.9265C69.5115 51.9265 72.6864 55.1017 72.6864 59.0183Z" fill="#CE412D"/>
<path d="M65.592 63.1153C67.8547 63.1153 69.6889 61.2811 69.6889 59.0184C69.6889 56.7558 67.8547 54.9216 65.592 54.9216C63.3294 54.9216 61.4952 56.7558 61.4952 59.0184C61.4952 61.2811 63.3294 63.1153 65.592 63.1153Z" fill="white"/>
</svg>
